<svg width="24" height="24" version="1.1" viewBox="0 0 24 24" xml:space="preserve" xmlns="http://www.w3.org/2000/svg">
 <path d="m12.89 17.58c-.1635 3.186-2.851 5.822-6.136 5.825-3.287.002523-5.986-2.637-6.149-5.825-.1764-3.427 2.623-6.463 6.142-6.463 3.521 0 6.318 3.038 6.144 6.463z" fill="#eae6d2"/>
 <path d="m6.746 10.52c-3.862 0-6.932 3.323-6.738 7.093.1799 3.508 3.139 6.395 6.747 6.392 3.605-.0028 6.554-2.887 6.734-6.392.1912-3.768-2.877-7.093-6.743-7.093zm0 1.197c3.177 0 5.704 2.753 5.548 5.836-.1472 2.868-2.574 5.253-5.538 5.255-2.967.0023-5.406-2.386-5.553-5.255-.1587-3.084 2.37-5.836 5.543-5.836z"/>
 <path d="m9.738 20.14q-.6449.3135-1.339.4702-.6942.1567-1.433.1567-1.671 0-2.647-.9315-.9763-.936-.9763-2.535 0-1.617.9942-2.544.9942-.9272 2.723-.927.6673 0 1.276.1254.6135.1254 1.155.3717v1.383q-.5598-.318-1.115-.4747-.5509-.1567-1.106-.1567-1.03 0-1.59.5777-.5553.5733-.5553 1.643 0 1.062.5374 1.639.5374.5777 1.528.5777.2687 0 .4971-.03135.2329-.03583.4165-.1074v-1.298h-1.052v-1.155h2.687z" fill="#241f1c"/>
 </svg>
