<svg width="32" height="32" version="1.1" viewBox="0 0 32 32" xml:space="preserve" xmlns="http://www.w3.org/2000/svg"><path d="m15.95 3.082v12.87h-12.87v3.017h12.87v12.87h3.017v-12.87h12.87v-3.017h-12.87v-12.87z" fill-opacity=".1"/><path d="m15.79 2.921v12.87h-12.87v3.017h12.87v12.87h3.017v-12.87h12.87v-3.017h-12.87v-12.87z" fill-opacity=".1"/><path d="m15.63 2.759v12.87h-12.87v3.017h12.87v12.87h3.017v-12.87h12.87v-3.017h-12.87v-12.87z" fill-opacity=".1"/><path d="m15.47 2.597v12.87h-12.87v3.017h12.87v12.87h3.017v-12.87h12.87v-3.017h-12.87v-12.87z" fill-opacity=".1"/><path d="m15.31 2.436v12.87h-12.87v3.017h12.87v12.87h3.017v-12.87h12.87v-3.017h-12.87v-12.87z" fill-opacity=".1"/><path d="m15.15 2.274v12.87h-12.87v3.017h12.87v12.87h3.017v-12.87h12.87v-3.017h-12.87v-12.87z" fill-opacity=".1"/><path d="m14.98 2.112v12.87h-12.87v3.017h12.87v12.87h3.017v-12.87h12.87v-3.017h-12.87v-12.87z" fill-opacity=".1"/><path d="m14.49 1.619v12.87h-12.87v3.017h12.87v12.87h3.017v-12.87h12.87v-3.017h-12.87v-12.87z" fill="#fff"/><path d="m14.12 1.254v12.87h-12.87v3.75h12.87v12.87h3.75v-12.87h12.87v-3.75h-12.87v-12.87zm.7324.7305h2.285v12.87h12.87v2.285h-12.87v12.87h-2.285v-12.87h-12.87v-2.285h12.87z" color="#000000"/></svg>
