<svg width="24" height="24" version="1.1" viewBox="0 0 24 24" xml:space="preserve" xmlns="http://www.w3.org/2000/svg">
 <path d="m6.873 18.33c.04689.7457.6911 1.351 1.438 1.351h7.379c.7469 0 1.391-.6052 1.438-1.351l.6362-10.18h-11.53zm11.37-13.06h-3.362l-.3477-.6953c-.08133-.1627-.2477-.2655-.4296-.2655h-4.209c-.182 0-.3483.1028-.4296.2655l-.348.6953h-3.362c-.2653 0-.4803.215-.4803.4803v.9607c0 .2653.2151.4804.4803.4804h12.49c.2653 0 .4804-.2151.4804-.4804v-.9607c0-.2654-.2162-.4803-.4804-.4803z" fill="#fff"/>
</svg>
