<svg width="24" height="24" version="1.1" viewBox="0 0 24 24" xml:space="preserve" xmlns="http://www.w3.org/2000/svg">
 <path d="m18.1 15.42h-3.694c-1.087 0-1.087 1.631 0 1.631h1.957c-4.06 4.244-11.22 1.381-11.24-4.494 0-1.087-1.631-1.087-1.631 0 .01936 7.151 8.576 10.82 13.77 5.897v1.443c0 1.087 1.631 1.087 1.631 0v-3.669c-.0041-.4379-.3534-.7943-.7911-.8074z" fill="#fff"/>
 <path d="m12.36 3.289c-2.091.00597-4.099.8147-5.611 2.259v-1.443c0-1.087-1.631-1.087-1.631 0v3.669c0 .4504.3651.8155.8155.8155h3.669c1.087 0 1.087-1.631 0-1.631h-1.957c4.058-4.241 11.21-1.384 11.24 4.486 0 1.087 1.631 1.087 1.631 0 0-4.504-3.651-8.155-8.155-8.155z" fill="#fff"/>
 <path d="m13.23 12a1.226 1.226 0 01-1.226 1.226 1.226 1.226 0 01-1.226-1.226 1.226 1.226 0 011.226-1.226 1.226 1.226 0 011.226 1.226z" fill="#fff"/>
</svg>
