<svg width="24" height="24" version="1.1" viewBox="0 0 24 24" xml:space="preserve" xmlns="http://www.w3.org/2000/svg">
 <path d="m13.12 3.11c-2.021-.02534-4.016.6829-5.39 2.142l-.9376.9363a.6335.6335 0 000 .8958l2.534 2.534a.6335.6335 0 00.8958 0l.6335-.6335c.7412-.7412 2.005-1.138 2.973-.8794a2.939 2.939 0 012.078 2.079c.2597.9681-.1369 2.23-.878 2.973l-.6335.6335a.6335.6335 0 000 .8958l2.534 2.534a.6335.6335 0 00.8958 0l.9503-.9503c2.818-2.818 2.811-7.98-.1242-10.91-1.467-1.467-3.51-2.222-5.53-2.248zm-7.79 4.793a.6335.6335 0 00-.4383.1863l-1.584 1.584a.6335.6335 0 000 .8958l2.534 2.534a.6335.6335 0 00.8958 0l1.584-1.584a.6335.6335 0 000-.8958l-2.534-2.534a.6335.6335 0 00-.4574-.1863zm7.603 7.603a.6335.6335 0 00-.4383.1863l-1.584 1.584a.6335.6335 0 000 .8958l2.534 2.534a.6335.6335 0 00.8958 0l1.584-1.584a.6335.6335 0 000-.8958l-2.534-2.534a.6335.6335 0 00-.4574-.1863z" fill="#fff"/>
</svg>
