<svg width="24" height="24" version="1.1" viewBox="0 0 24 24" xml:space="preserve" xmlns="http://www.w3.org/2000/svg">
 <path d="m13.45 13.41a1.432 1.432 0 01-1.432 1.432 1.432 1.432 0 01-1.432-1.432 1.432 1.432 0 011.432-1.432 1.432 1.432 0 011.432 1.432z" fill="#7f7f7f"/>
 <path d="m12.01 1.301c-.2238.00441-.4334.1099-.5694.2876-.0015.00294-.0044.00586-.0058.0088l-2.867 2.866c-.716.6915.3459 1.754 1.037 1.037l1.683-1.683v5.566c0 .9784 1.468.9784 1.468 0v-5.566l1.682 1.683c.6926.6927 1.731-.3463 1.039-1.039l-2.874-2.871c-.1407-.1848-.3606-.292-.5929-.289z" fill="#82cc1a"/>
 <path d="m6.992 21.62c.5731-.3293.4527-1.189-.1888-1.348l-2.298-.6149 4.821-2.783c.8473-.4891.1136-1.76-.7338-1.271l-4.821 2.783.6169-2.298c.2535-.9462-1.166-1.327-1.42-.3803l-1.05 3.924c-.1842.4444.1019.9429.5785 1.008.0033-.000201.0072.000859.01063.00074l3.917 1.05c.1909.0543.3958.02905.5678-.07024z" fill="#e9384f"/>
 <path d="m20.68 15.25c-.5717-.3316-1.256.2024-1.073.8376l.6169 2.298-4.821-2.783c-.8473-.4891-1.58.7818-.7338 1.271l4.821 2.783-2.298.6149c-.9462.2535-.5659 1.673.3803 1.42l3.923-1.052c.4771-.06266.7657-.5598.5837-1.005-.0018-.0026-.003-.0067-.0046-.0095l-1.05-3.917c-.04846-.1926-.1728-.3573-.3447-.4566z" fill="#3084eb"/>
</svg>
