<svg width="24" height="24" version="1.1" viewBox="0 0 24 24" xml:space="preserve" xmlns="http://www.w3.org/2000/svg">
 <path d="m6.929 4.24a.5967.5967 0 00-.5752.4416l-3.879 14.33a.5967.5967 0 00.5752.7518h17.9a.5967.5967 0 00.5752-.7518l-3.879-14.33a.5967.5967 0 00-.5752-.4416zm.4571 1.193h2.49l-.2589 2.387h-2.879zm3.692 0h1.845l.2589 2.387h-2.363zm3.049 0h2.49l.6457 2.387h-2.876zm-7.71 3.58h3.069l-.3903 3.58h-3.65zm4.273 0h2.625l.389 3.58h-3.404zm3.826 0h3.07l.9691 3.58h-3.65zm-9.392 4.773h3.843l-.518 4.773h-4.619zm5.048 0h3.659l.5204 4.773h-4.701zm4.865 0h3.843l1.295 4.773h-4.62z" fill="#fff"/>
</svg>
