<svg width="24" height="24" version="1.1" viewBox="0 0 24 24" xml:space="preserve" xmlns="http://www.w3.org/2000/svg">
 <path d="m4.153 3.63a.5233.5233 0 00-.5233.5233v15.69a.5233.5233 0 00.5233.5233h15.69a.5233.5233 0 00.5233-.5233v-15.69a.5233.5233 0 00-.5233-.5233zm.5233 1.047h4.187v4.187h-4.187zm5.233 0h4.187v4.187h-4.187zm5.233 0h4.187v4.187h-4.187zm-10.47 5.233h4.187v4.187h-4.187zm5.233 0h4.187v4.187h-4.187zm5.233 0h4.187v4.187h-4.187zm-10.47 5.233h4.187v4.187h-4.187zm5.233 0h4.187v4.187h-4.187zm5.233 0h4.187v4.187h-4.187z" fill="#fff"/>
</svg>
