# Blender v2.79 (sub 0) OBJ File: ''
# www.blender.org
mtllib generic_object.mtl
o Cube
v -1.000000 -1.000000 -1.000000
v -1.000000 1.000000 -1.000000
v 1.000000 1.000000 -1.000000
v 1.000000 -1.000000 -1.000000
v 1.000000 1.000000 1.000000
v 1.000000 -1.000000 1.000000
v 3.000000 0.000000 -0.000000
v -1.000000 1.000000 1.000000
v -1.000000 -1.000000 1.000000
vn -0.0000 -0.0000 -1.0000
vn 0.4472 0.0000 0.8944
vn 0.0000 0.0000 1.0000
vn -1.0000 -0.0000 0.0000
vn 0.0000 -1.0000 0.0000
vn -0.0000 1.0000 -0.0000
vn 0.4472 -0.8944 -0.0000
vn 0.4472 0.8944 -0.0000
vn 0.4472 0.0000 -0.8944
usemtl None
s 1
f 1//1 2//1 3//1 4//1
f 5//2 6//2 7//2
f 6//3 5//3 8//3 9//3
f 9//4 8//4 2//4 1//4
f 4//5 6//5 9//5 1//5
f 5//6 3//6 2//6 8//6
f 6//7 4//7 7//7
f 3//8 5//8 7//8
f 4//9 3//9 7//9
o eyes
v 1.619416 0.604231 -0.300000
v 1.675334 0.641594 -0.300000
v 1.666057 0.641594 -0.253360
v 1.614396 0.604231 -0.274758
v 1.712697 0.697511 -0.300000
v 1.725817 0.763471 -0.300000
v 1.712697 0.763471 -0.234041
v 1.700576 0.697511 -0.239061
v 1.712697 0.829430 -0.300000
v 1.675334 0.885348 -0.300000
v 1.666057 0.885348 -0.253360
v 1.700576 0.829430 -0.239061
v 1.619416 0.922711 -0.300000
v 1.553457 0.935831 -0.300000
v 1.614396 0.922711 -0.274758
v 1.553457 0.591111 -0.300000
v 1.600097 0.604231 -0.253360
v 1.666057 0.697511 -0.187400
v 1.639637 0.641594 -0.213820
v 1.666057 0.829430 -0.187400
v 1.675334 0.763471 -0.178123
v 1.600097 0.922711 -0.253360
v 1.639637 0.885348 -0.213820
v 1.614396 0.829430 -0.152881
v 1.619416 0.763471 -0.140760
v 1.578699 0.922711 -0.239061
v 1.600097 0.885348 -0.187400
v 1.600097 0.641594 -0.187400
v 1.578699 0.604231 -0.239061
v 1.614396 0.697511 -0.152881
v 1.553457 0.641594 -0.178123
v 1.553457 0.604231 -0.234041
v 1.553457 0.763471 -0.127640
v 1.553457 0.697511 -0.140760
v 1.553457 0.885348 -0.178123
v 1.553457 0.829430 -0.140760
v 1.553457 0.922711 -0.234041
v 1.506817 0.885348 -0.187400
v 1.492518 0.829430 -0.152881
v 1.528215 0.922711 -0.239061
v 1.528215 0.604231 -0.239061
v 1.492518 0.697511 -0.152881
v 1.506817 0.641594 -0.187400
v 1.487498 0.763471 -0.140760
v 1.506817 0.604231 -0.253360
v 1.440857 0.697511 -0.187400
v 1.467277 0.641594 -0.213820
v 1.440857 0.829430 -0.187400
v 1.431580 0.763471 -0.178123
v 1.506817 0.922711 -0.253360
v 1.467277 0.885348 -0.213820
v 1.492518 0.922711 -0.274758
v 1.440857 0.885348 -0.253360
v 1.440857 0.641594 -0.253360
v 1.492518 0.604231 -0.274758
v 1.394217 0.763471 -0.234041
v 1.406338 0.697511 -0.239061
v 1.406338 0.829430 -0.239061
v 1.431580 0.641594 -0.300000
v 1.487498 0.604231 -0.300000
v 1.381097 0.763471 -0.300000
v 1.394217 0.697511 -0.300000
v 1.431580 0.885348 -0.300000
v 1.394217 0.829430 -0.300000
v 1.487498 0.922711 -0.300000
v 1.492518 0.922711 -0.325242
v 1.492518 0.604231 -0.325242
v 1.406338 0.697511 -0.360939
v 1.440857 0.641594 -0.346640
v 1.406338 0.829430 -0.360939
v 1.394217 0.763471 -0.365960
v 1.440857 0.885348 -0.346640
v 1.440857 0.697511 -0.412600
v 1.467277 0.641594 -0.386180
v 1.440857 0.829430 -0.412600
v 1.431580 0.763471 -0.421877
v 1.506817 0.922711 -0.346640
v 1.467277 0.885348 -0.386180
v 1.506817 0.604231 -0.346640
v 1.506817 0.641594 -0.412600
v 1.528216 0.604231 -0.360939
v 1.487498 0.763471 -0.459240
v 1.492519 0.697511 -0.447119
v 1.506817 0.885348 -0.412600
v 1.492519 0.829430 -0.447119
v 1.528216 0.922711 -0.360939
v 1.553457 0.763471 -0.472360
v 1.553457 0.697511 -0.459240
v 1.553457 0.885348 -0.421877
v 1.553457 0.829430 -0.459240
v 1.553457 0.922711 -0.365959
v 1.553457 0.604231 -0.365959
v 1.553457 0.641594 -0.421877
v 1.578699 0.604231 -0.360939
v 1.614396 0.697511 -0.447119
v 1.600097 0.641594 -0.412600
v 1.614396 0.829430 -0.447119
v 1.619417 0.763471 -0.459240
v 1.578699 0.922711 -0.360939
v 1.600097 0.885348 -0.412600
v 1.666057 0.829430 -0.412600
v 1.675334 0.763471 -0.421877
v 1.600097 0.922711 -0.346640
v 1.639637 0.885348 -0.386180
v 1.639637 0.641594 -0.386180
v 1.600097 0.604231 -0.346640
v 1.666057 0.697511 -0.412600
v 1.666057 0.641594 -0.346640
v 1.614396 0.604231 -0.325242
v 1.712697 0.763471 -0.365959
v 1.700576 0.697511 -0.360939
v 1.666057 0.885348 -0.346640
v 1.700576 0.829430 -0.360939
v 1.614396 0.922711 -0.325242
v 1.619420 0.604231 0.300000
v 1.675337 0.641594 0.300000
v 1.666060 0.641594 0.346640
v 1.614399 0.604231 0.325242
v 1.712700 0.697511 0.300000
v 1.725821 0.763471 0.300000
v 1.712700 0.763471 0.365960
v 1.700579 0.697511 0.360939
v 1.712700 0.829430 0.300000
v 1.675337 0.885348 0.300000
v 1.666060 0.885348 0.346640
v 1.700579 0.829430 0.360939
v 1.619420 0.922711 0.300000
v 1.553460 0.935831 0.300000
v 1.614399 0.922711 0.325242
v 1.553460 0.591110 0.300000
v 1.600101 0.604231 0.346640
v 1.666060 0.697511 0.412600
v 1.639640 0.641594 0.386180
v 1.666060 0.829430 0.412600
v 1.675337 0.763471 0.421877
v 1.600101 0.922711 0.346640
v 1.639640 0.885348 0.386180
v 1.614399 0.829430 0.447119
v 1.619420 0.763471 0.459240
v 1.578702 0.922711 0.360939
v 1.600101 0.885348 0.412600
v 1.600101 0.641594 0.412600
v 1.578702 0.604231 0.360939
v 1.614399 0.697511 0.447119
v 1.553460 0.641594 0.421877
v 1.553460 0.604231 0.365959
v 1.553460 0.763471 0.472360
v 1.553460 0.697511 0.459240
v 1.553460 0.885348 0.421877
v 1.553460 0.829430 0.459240
v 1.553460 0.922711 0.365959
v 1.506820 0.885348 0.412600
v 1.492522 0.829430 0.447119
v 1.528219 0.922711 0.360939
v 1.528219 0.604231 0.360939
v 1.492522 0.697511 0.447119
v 1.506820 0.641594 0.412600
v 1.487501 0.763471 0.459240
v 1.506820 0.604231 0.346640
v 1.440860 0.697511 0.412600
v 1.467280 0.641594 0.386180
v 1.440860 0.829430 0.412600
v 1.431583 0.763471 0.421877
v 1.506820 0.922711 0.346640
v 1.467280 0.885348 0.386180
v 1.492522 0.922711 0.325242
v 1.440860 0.885348 0.346640
v 1.440860 0.641594 0.346640
v 1.492522 0.604231 0.325242
v 1.394220 0.763471 0.365959
v 1.406341 0.697511 0.360939
v 1.406341 0.829430 0.360939
v 1.431583 0.641594 0.300000
v 1.487501 0.604231 0.300000
v 1.381100 0.763471 0.300000
v 1.394220 0.697511 0.300000
v 1.431583 0.885348 0.300000
v 1.394220 0.829430 0.300000
v 1.487501 0.922711 0.300000
v 1.492522 0.922711 0.274758
v 1.492522 0.604231 0.274758
v 1.406341 0.697511 0.239061
v 1.440860 0.641594 0.253360
v 1.406341 0.829430 0.239061
v 1.394220 0.763471 0.234040
v 1.440860 0.885348 0.253360
v 1.440860 0.697511 0.187400
v 1.467280 0.641594 0.213820
v 1.440860 0.829430 0.187400
v 1.431583 0.763471 0.178123
v 1.506820 0.922711 0.253360
v 1.467280 0.885348 0.213820
v 1.506820 0.604231 0.253360
v 1.506820 0.641594 0.187400
v 1.528219 0.604231 0.239061
v 1.487501 0.763471 0.140760
v 1.492522 0.697511 0.152881
v 1.506820 0.885348 0.187400
v 1.492522 0.829430 0.152881
v 1.528219 0.922711 0.239061
v 1.553460 0.763471 0.127640
v 1.553460 0.697511 0.140760
v 1.553460 0.885348 0.178123
v 1.553460 0.829430 0.140760
v 1.553460 0.922711 0.234041
v 1.553460 0.604231 0.234041
v 1.553460 0.641594 0.178123
v 1.578702 0.604231 0.239061
v 1.614399 0.697511 0.152881
v 1.600101 0.641594 0.187400
v 1.614399 0.829430 0.152881
v 1.619420 0.763471 0.140760
v 1.578702 0.922711 0.239061
v 1.600101 0.885348 0.187400
v 1.666060 0.829430 0.187400
v 1.675337 0.763471 0.178123
v 1.600101 0.922711 0.253360
v 1.639640 0.885348 0.213820
v 1.639640 0.641594 0.213820
v 1.600101 0.604231 0.253360
v 1.666060 0.697511 0.187400
v 1.666060 0.641594 0.253360
v 1.614399 0.604231 0.274758
v 1.712700 0.763471 0.234041
v 1.700579 0.697511 0.239061
v 1.666060 0.885348 0.253360
v 1.700579 0.829430 0.239061
v 1.614399 0.922711 0.274758
vn 0.5522 -0.8264 0.1098
vn 0.9626 -0.1915 0.1915
vn 0.8203 0.5481 0.1632
vn 0.1949 0.9800 0.0388
vn 0.1949 -0.9800 0.0388
vn 0.8203 -0.5481 0.1632
vn 0.9626 0.1915 0.1915
vn 0.5522 0.8264 0.1098
vn 0.1653 -0.9800 0.1104
vn 0.6954 -0.5481 0.4647
vn 0.8161 0.1915 0.5453
vn 0.4681 0.8264 0.3128
vn 0.4681 -0.8264 0.3128
vn 0.8161 -0.1915 0.5453
vn 0.6954 0.5481 0.4647
vn 0.1653 0.9800 0.1104
vn 0.5453 0.1915 0.8161
vn 0.3128 0.8264 0.4681
vn 0.3128 -0.8264 0.4681
vn 0.5453 -0.1915 0.8161
vn 0.4647 0.5481 0.6954
vn 0.1104 0.9800 0.1653
vn 0.1104 -0.9800 0.1653
vn 0.4647 -0.5481 0.6954
vn 0.1098 -0.8264 0.5522
vn 0.1915 -0.1915 0.9626
vn 0.1632 0.5481 0.8203
vn 0.0388 0.9800 0.1949
vn 0.0388 -0.9800 0.1949
vn 0.1632 -0.5481 0.8203
vn 0.1915 0.1915 0.9626
vn 0.1098 0.8264 0.5522
vn -0.1632 0.5481 0.8203
vn -0.0388 0.9800 0.1949
vn -0.0388 -0.9800 0.1949
vn -0.1632 -0.5481 0.8203
vn -0.1915 0.1915 0.9626
vn -0.1098 0.8264 0.5522
vn -0.1098 -0.8264 0.5522
vn -0.1915 -0.1915 0.9626
vn -0.1104 -0.9800 0.1653
vn -0.4647 -0.5481 0.6954
vn -0.5453 0.1915 0.8161
vn -0.3128 0.8264 0.4681
vn -0.3128 -0.8264 0.4681
vn -0.5453 -0.1915 0.8161
vn -0.4647 0.5481 0.6954
vn -0.1104 0.9800 0.1653
vn -0.4681 0.8264 0.3128
vn -0.4681 -0.8264 0.3128
vn -0.8161 -0.1915 0.5453
vn -0.6954 0.5481 0.4647
vn -0.1653 0.9800 0.1104
vn -0.1653 -0.9800 0.1104
vn -0.6954 -0.5481 0.4647
vn -0.8161 0.1915 0.5453
vn -0.5522 -0.8264 0.1098
vn -0.9626 -0.1915 0.1915
vn -0.8203 0.5481 0.1632
vn -0.1949 0.9800 0.0388
vn -0.1949 -0.9800 0.0388
vn -0.8203 -0.5481 0.1632
vn -0.9626 0.1915 0.1915
vn -0.5522 0.8264 0.1098
vn -0.1949 0.9800 -0.0388
vn -0.1949 -0.9800 -0.0388
vn -0.8203 -0.5481 -0.1632
vn -0.9626 0.1915 -0.1915
vn -0.5522 0.8264 -0.1098
vn -0.5522 -0.8264 -0.1098
vn -0.9626 -0.1915 -0.1915
vn -0.8203 0.5481 -0.1632
vn -0.6954 -0.5481 -0.4647
vn -0.8161 0.1915 -0.5453
vn -0.4681 0.8264 -0.3128
vn -0.4681 -0.8264 -0.3128
vn -0.8161 -0.1915 -0.5453
vn -0.6954 0.5481 -0.4647
vn -0.1653 0.9800 -0.1104
vn -0.1653 -0.9800 -0.1104
vn -0.3128 -0.8264 -0.4681
vn -0.5453 -0.1915 -0.8161
vn -0.4647 0.5481 -0.6954
vn -0.1104 0.9800 -0.1653
vn -0.1104 -0.9800 -0.1653
vn -0.4647 -0.5481 -0.6954
vn -0.5453 0.1915 -0.8161
vn -0.3128 0.8264 -0.4681
vn -0.1915 -0.1915 -0.9626
vn -0.1632 0.5481 -0.8203
vn -0.0388 0.9800 -0.1949
vn -0.0388 -0.9800 -0.1949
vn -0.1632 -0.5481 -0.8203
vn -0.1915 0.1915 -0.9626
vn -0.1098 0.8264 -0.5522
vn -0.1098 -0.8264 -0.5522
vn 0.0388 -0.9800 -0.1949
vn 0.1632 -0.5481 -0.8203
vn 0.1915 0.1915 -0.9626
vn 0.1098 0.8264 -0.5522
vn 0.1098 -0.8264 -0.5522
vn 0.1915 -0.1915 -0.9626
vn 0.1632 0.5481 -0.8203
vn 0.0388 0.9800 -0.1949
vn 0.5453 0.1915 -0.8161
vn 0.3128 0.8264 -0.4681
vn 0.3128 -0.8264 -0.4681
vn 0.5453 -0.1915 -0.8161
vn 0.4647 0.5481 -0.6954
vn 0.1104 0.9800 -0.1653
vn 0.1104 -0.9800 -0.1653
vn 0.4647 -0.5481 -0.6954
vn 0.4681 -0.8264 -0.3128
vn 0.8161 -0.1915 -0.5453
vn 0.6954 0.5481 -0.4647
vn 0.1653 0.9800 -0.1104
vn 0.1653 -0.9800 -0.1104
vn 0.6954 -0.5481 -0.4647
vn 0.8161 0.1915 -0.5453
vn 0.4681 0.8264 -0.3128
vn 0.8203 0.5481 -0.1632
vn 0.1949 0.9800 -0.0388
vn 0.1949 -0.9800 -0.0388
vn 0.8203 -0.5481 -0.1632
vn 0.9626 0.1915 -0.1915
vn 0.5522 0.8264 -0.1098
vn 0.5522 -0.8264 -0.1098
vn 0.9626 -0.1915 -0.1915
vn 0.1950 -0.9800 0.0388
vn 0.0388 -0.9800 0.1950
vn -0.0388 -0.9800 0.1950
vn -0.1950 -0.9800 0.0388
vn -0.1950 -0.9800 -0.0388
vn -0.0388 -0.9800 -0.1950
vn 0.0388 -0.9800 -0.1950
vn 0.1950 -0.9800 -0.0388
usemtl None
s off
f 10//10 11//10 12//10 13//10
f 14//11 15//11 16//11 17//11
f 18//12 19//12 20//12 21//12
f 22//13 23//13 24//13
f 25//14 10//14 13//14
f 11//15 14//15 17//15 12//15
f 15//16 18//16 21//16 16//16
f 19//17 22//17 24//17 20//17
f 25//18 13//18 26//18
f 12//19 17//19 27//19 28//19
f 16//20 21//20 29//20 30//20
f 20//21 24//21 31//21 32//21
f 13//22 12//22 28//22 26//22
f 17//23 16//23 30//23 27//23
f 21//24 20//24 32//24 29//24
f 24//25 23//25 31//25
f 30//26 29//26 33//26 34//26
f 32//27 31//27 35//27 36//27
f 26//28 28//28 37//28 38//28
f 27//29 30//29 34//29 39//29
f 29//30 32//30 36//30 33//30
f 31//31 23//31 35//31
f 25//32 26//32 38//32
f 28//33 27//33 39//33 37//33
f 38//34 37//34 40//34 41//34
f 39//35 34//35 42//35 43//35
f 33//36 36//36 44//36 45//36
f 35//37 23//37 46//37
f 25//38 38//38 41//38
f 37//39 39//39 43//39 40//39
f 34//40 33//40 45//40 42//40
f 36//41 35//41 46//41 44//41
f 45//42 44//42 47//42 48//42
f 46//43 23//43 49//43
f 25//44 41//44 50//44
f 40//45 43//45 51//45 52//45
f 42//46 45//46 48//46 53//46
f 44//47 46//47 49//47 47//47
f 41//48 40//48 52//48 50//48
f 43//49 42//49 53//49 51//49
f 25//50 50//50 54//50
f 52//51 51//51 55//51 56//51
f 53//52 48//52 57//52 58//52
f 47//53 49//53 59//53 60//53
f 50//54 52//54 56//54 54//54
f 51//55 53//55 58//55 55//55
f 48//56 47//56 60//56 57//56
f 49//57 23//57 59//57
f 60//58 59//58 61//58 62//58
f 54//59 56//59 63//59 64//59
f 55//60 58//60 65//60 66//60
f 57//61 60//61 62//61 67//61
f 59//62 23//62 61//62
f 25//63 54//63 64//63
f 56//64 55//64 66//64 63//64
f 58//65 57//65 67//65 65//65
f 64//66 63//66 68//66 69//66
f 66//67 65//67 70//67 71//67
f 67//68 62//68 72//68 73//68
f 61//69 23//69 74//69
f 25//70 64//70 69//70
f 63//71 66//71 71//71 68//71
f 65//72 67//72 73//72 70//72
f 62//73 61//73 74//73 72//73
f 74//74 23//74 75//74
f 25//75 69//75 76//75
f 68//76 71//76 77//76 78//76
f 70//77 73//77 79//77 80//77
f 72//78 74//78 75//78 81//78
f 69//79 68//79 78//79 76//79
f 71//80 70//80 80//80 77//80
f 73//81 72//81 81//81 79//81
f 78//82 77//82 82//82 83//82
f 80//83 79//83 84//83 85//83
f 81//84 75//84 86//84 87//84
f 76//85 78//85 83//85 88//85
f 77//86 80//86 85//86 82//86
f 79//87 81//87 87//87 84//87
f 75//88 23//88 86//88
f 25//89 76//89 88//89
f 88//90 83//90 89//90 90//90
f 82//91 85//91 91//91 92//91
f 84//92 87//92 93//92 94//92
f 86//93 23//93 95//93
f 25//94 88//94 90//94
f 83//95 82//95 92//95 89//95
f 85//96 84//96 94//96 91//96
f 87//97 86//97 95//97 93//97
f 92//98 91//98 96//98 97//98
f 94//99 93//99 98//99 99//99
f 95//100 23//100 100//100
f 25//101 90//101 101//101
f 89//102 92//102 97//102 102//102
f 91//103 94//103 99//103 96//103
f 93//104 95//104 100//104 98//104
f 90//105 89//105 102//105 101//105
f 25//106 101//106 103//106
f 102//107 97//107 104//107 105//107
f 96//108 99//108 106//108 107//108
f 98//109 100//109 108//109 109//109
f 101//110 102//110 105//110 103//110
f 97//111 96//111 107//111 104//111
f 99//112 98//112 109//112 106//112
f 100//113 23//113 108//113
f 107//114 106//114 110//114 111//114
f 109//115 108//115 112//115 113//115
f 103//116 105//116 114//116 115//116
f 104//117 107//117 111//117 116//117
f 106//118 109//118 113//118 110//118
f 108//119 23//119 112//119
f 25//120 103//120 115//120
f 105//121 104//121 116//121 114//121
f 115//122 114//122 117//122 118//122
f 116//123 111//123 119//123 120//123
f 110//124 113//124 121//124 122//124
f 112//125 23//125 123//125
f 25//126 115//126 118//126
f 114//127 116//127 120//127 117//127
f 111//128 110//128 122//128 119//128
f 113//129 112//129 123//129 121//129
f 122//130 121//130 19//130 18//130
f 123//131 23//131 22//131
f 25//132 118//132 10//132
f 117//133 120//133 14//133 11//133
f 119//134 122//134 18//134 15//134
f 121//135 123//135 22//135 19//135
f 118//136 117//136 11//136 10//136
f 120//137 119//137 15//137 14//137
f 124//10 125//10 126//10 127//10
f 128//11 129//11 130//11 131//11
f 132//12 133//12 134//12 135//12
f 136//13 137//13 138//13
f 139//138 124//138 127//138
f 125//15 128//15 131//15 126//15
f 129//16 132//16 135//16 130//16
f 133//17 136//17 138//17 134//17
f 139//18 127//18 140//18
f 126//19 131//19 141//19 142//19
f 130//20 135//20 143//20 144//20
f 134//21 138//21 145//21 146//21
f 127//22 126//22 142//22 140//22
f 131//23 130//23 144//23 141//23
f 135//24 134//24 146//24 143//24
f 138//25 137//25 145//25
f 144//26 143//26 147//26 148//26
f 146//27 145//27 149//27 150//27
f 140//28 142//28 151//28 152//28
f 141//29 144//29 148//29 153//29
f 143//30 146//30 150//30 147//30
f 145//31 137//31 149//31
f 139//32 140//32 152//32
f 142//33 141//33 153//33 151//33
f 152//34 151//34 154//34 155//34
f 153//35 148//35 156//35 157//35
f 147//36 150//36 158//36 159//36
f 149//37 137//37 160//37
f 139//139 152//139 155//139
f 151//39 153//39 157//39 154//39
f 148//40 147//40 159//40 156//40
f 150//41 149//41 160//41 158//41
f 159//42 158//42 161//42 162//42
f 160//43 137//43 163//43
f 139//140 155//140 164//140
f 154//45 157//45 165//45 166//45
f 156//46 159//46 162//46 167//46
f 158//47 160//47 163//47 161//47
f 155//48 154//48 166//48 164//48
f 157//49 156//49 167//49 165//49
f 139//50 164//50 168//50
f 166//51 165//51 169//51 170//51
f 167//52 162//52 171//52 172//52
f 161//53 163//53 173//53 174//53
f 164//54 166//54 170//54 168//54
f 165//55 167//55 172//55 169//55
f 162//56 161//56 174//56 171//56
f 163//57 137//57 173//57
f 174//58 173//58 175//58 176//58
f 168//59 170//59 177//59 178//59
f 169//60 172//60 179//60 180//60
f 171//61 174//61 176//61 181//61
f 173//62 137//62 175//62
f 139//63 168//63 178//63
f 170//64 169//64 180//64 177//64
f 172//65 171//65 181//65 179//65
f 178//66 177//66 182//66 183//66
f 180//67 179//67 184//67 185//67
f 181//68 176//68 186//68 187//68
f 175//69 137//69 188//69
f 139//141 178//141 183//141
f 177//71 180//71 185//71 182//71
f 179//72 181//72 187//72 184//72
f 176//73 175//73 188//73 186//73
f 188//74 137//74 189//74
f 139//142 183//142 190//142
f 182//76 185//76 191//76 192//76
f 184//77 187//77 193//77 194//77
f 186//78 188//78 189//78 195//78
f 183//79 182//79 192//79 190//79
f 185//80 184//80 194//80 191//80
f 187//81 186//81 195//81 193//81
f 192//82 191//82 196//82 197//82
f 194//83 193//83 198//83 199//83
f 195//84 189//84 200//84 201//84
f 190//85 192//85 197//85 202//85
f 191//86 194//86 199//86 196//86
f 193//87 195//87 201//87 198//87
f 189//88 137//88 200//88
f 139//89 190//89 202//89
f 202//90 197//90 203//90 204//90
f 196//91 199//91 205//91 206//91
f 198//92 201//92 207//92 208//92
f 200//93 137//93 209//93
f 139//94 202//94 204//94
f 197//95 196//95 206//95 203//95
f 199//96 198//96 208//96 205//96
f 201//97 200//97 209//97 207//97
f 206//98 205//98 210//98 211//98
f 208//99 207//99 212//99 213//99
f 209//100 137//100 214//100
f 139//143 204//143 215//143
f 203//102 206//102 211//102 216//102
f 205//103 208//103 213//103 210//103
f 207//104 209//104 214//104 212//104
f 204//105 203//105 216//105 215//105
f 139//144 215//144 217//144
f 216//107 211//107 218//107 219//107
f 210//108 213//108 220//108 221//108
f 212//109 214//109 222//109 223//109
f 215//110 216//110 219//110 217//110
f 211//111 210//111 221//111 218//111
f 213//112 212//112 223//112 220//112
f 214//113 137//113 222//113
f 221//114 220//114 224//114 225//114
f 223//115 222//115 226//115 227//115
f 217//116 219//116 228//116 229//116
f 218//117 221//117 225//117 230//117
f 220//118 223//118 227//118 224//118
f 222//119 137//119 226//119
f 139//120 217//120 229//120
f 219//121 218//121 230//121 228//121
f 229//122 228//122 231//122 232//122
f 230//123 225//123 233//123 234//123
f 224//124 227//124 235//124 236//124
f 226//125 137//125 237//125
f 139//126 229//126 232//126
f 228//127 230//127 234//127 231//127
f 225//128 224//128 236//128 233//128
f 227//129 226//129 237//129 235//129
f 236//130 235//130 133//130 132//130
f 237//131 137//131 136//131
f 139//145 232//145 124//145
f 231//133 234//133 128//133 125//133
f 233//134 236//134 132//134 129//134
f 235//135 237//135 136//135 133//135
f 232//136 231//136 125//136 124//136
f 234//137 233//137 129//137 128//137
o tip
v 2.262089 0.370313 0.370313
v 2.262089 -0.370313 0.370313
v 3.043955 0.000000 -0.000000
v 2.262089 -0.370313 -0.370313
v 2.262089 0.370313 -0.370313
vn 0.4280 0.0000 0.9038
vn 0.4280 -0.9038 0.0000
vn 0.4280 0.9038 0.0000
vn 0.4280 0.0000 -0.9038
usemtl None
s 1
f 238//146 239//146 240//146
f 239//147 241//147 240//147
f 242//148 238//148 240//148
f 241//149 242//149 240//149
